<mxfile host="app.diagrams.net" modified="2020-04-24T21:28:03.988Z" agent="5.0 (Windows NT 10.0; Win64; x64) AppleWebKit/537.36 (KHTML, like Gecko) Chrome/81.0.4044.122 Safari/537.36" etag="gjvezheuC4pSQ8GQYd8Z" version="13.0.1" type="github">
  <diagram id="RDYniLMKRmmL1WzlAPWp" name="Page-1">
    <mxGraphModel dx="1043" dy="637" grid="1" gridSize="10" guides="1" tooltips="1" connect="1" arrows="1" fold="1" page="1" pageScale="1" pageWidth="850" pageHeight="1100" math="0" shadow="0">
      <root>
        <mxCell id="0" />
        <mxCell id="1" parent="0" />
        <mxCell id="--FjLudx6Jw2cNEH7BGk-4" value="&lt;pre style=&quot;font-size: 20px&quot;&gt;O&lt;br&gt;F&lt;br&gt;C&lt;br&gt;|&lt;br&gt;1&lt;/pre&gt;" style="rounded=0;whiteSpace=wrap;html=1;" parent="1" vertex="1">
          <mxGeometry x="320" y="320" width="80" height="240" as="geometry" />
        </mxCell>
        <mxCell id="--FjLudx6Jw2cNEH7BGk-5" value="&lt;pre style=&quot;font-size: 20px&quot;&gt;O&lt;br&gt;F&lt;br&gt;C&lt;br&gt;|&lt;br&gt;2&lt;/pre&gt;" style="rounded=0;whiteSpace=wrap;html=1;" parent="1" vertex="1">
          <mxGeometry x="480" y="320" width="80" height="240" as="geometry" />
        </mxCell>
        <mxCell id="--FjLudx6Jw2cNEH7BGk-6" value="&lt;pre style=&quot;font-size: 20px&quot;&gt;T&lt;br&gt;o&lt;br&gt;p&lt;/pre&gt;&lt;pre style=&quot;font-size: 20px&quot;&gt;&lt;br&gt;C&lt;br&gt;D&lt;br&gt;T&lt;/pre&gt;" style="rounded=0;whiteSpace=wrap;html=1;" parent="1" vertex="1">
          <mxGeometry x="640" y="240" width="80" height="440" as="geometry" />
        </mxCell>
        <mxCell id="--FjLudx6Jw2cNEH7BGk-7" value="&lt;pre style=&quot;font-size: 20px&quot;&gt;Fanout&lt;br&gt;CDT&lt;/pre&gt;" style="rounded=0;whiteSpace=wrap;html=1;" parent="1" vertex="1">
          <mxGeometry x="360" y="160" width="160" height="80" as="geometry" />
        </mxCell>
        <mxCell id="--FjLudx6Jw2cNEH7BGk-8" value="&lt;pre style=&quot;font-size: 20px&quot;&gt;Fanout&lt;br&gt;CDT&lt;/pre&gt;" style="rounded=0;whiteSpace=wrap;html=1;" parent="1" vertex="1">
          <mxGeometry x="360" y="680" width="160" height="80" as="geometry" />
        </mxCell>
        <mxCell id="DW_VJ3tDuzgLOy0kpD_P-2" style="edgeStyle=orthogonalEdgeStyle;rounded=0;orthogonalLoop=1;jettySize=auto;html=1;exitX=0.5;exitY=1;exitDx=0;exitDy=0;" edge="1" parent="1" source="--FjLudx6Jw2cNEH7BGk-6" target="--FjLudx6Jw2cNEH7BGk-6">
          <mxGeometry relative="1" as="geometry" />
        </mxCell>
        <mxCell id="DW_VJ3tDuzgLOy0kpD_P-4" value="&lt;pre style=&quot;font-size: 16px&quot;&gt;Local&lt;br&gt;CDT&lt;/pre&gt;" style="rounded=0;whiteSpace=wrap;html=1;" vertex="1" parent="1">
          <mxGeometry x="160" y="200" width="80" height="40" as="geometry" />
        </mxCell>
        <mxCell id="DW_VJ3tDuzgLOy0kpD_P-10" value="&lt;pre style=&quot;font-size: 16px&quot;&gt;Local&lt;br&gt;CDT&lt;/pre&gt;" style="rounded=0;whiteSpace=wrap;html=1;" vertex="1" parent="1">
          <mxGeometry x="160" y="440" width="80" height="40" as="geometry" />
        </mxCell>
        <mxCell id="DW_VJ3tDuzgLOy0kpD_P-11" value="&lt;pre style=&quot;font-size: 16px&quot;&gt;Local&lt;br&gt;CDT&lt;/pre&gt;" style="rounded=0;whiteSpace=wrap;html=1;" vertex="1" parent="1">
          <mxGeometry x="160" y="520" width="80" height="40" as="geometry" />
        </mxCell>
        <mxCell id="DW_VJ3tDuzgLOy0kpD_P-13" value="&lt;pre style=&quot;font-size: 16px&quot;&gt;Local&lt;br&gt;CDT&lt;/pre&gt;" style="rounded=0;whiteSpace=wrap;html=1;" vertex="1" parent="1">
          <mxGeometry x="160" y="680" width="80" height="40" as="geometry" />
        </mxCell>
        <mxCell id="DW_VJ3tDuzgLOy0kpD_P-15" value="" style="endArrow=none;dashed=1;html=1;" edge="1" parent="1">
          <mxGeometry width="50" height="50" relative="1" as="geometry">
            <mxPoint x="199.32999999999998" y="300" as="sourcePoint" />
            <mxPoint x="199.32999999999998" y="260" as="targetPoint" />
          </mxGeometry>
        </mxCell>
        <mxCell id="DW_VJ3tDuzgLOy0kpD_P-16" value="" style="endArrow=none;dashed=1;html=1;" edge="1" parent="1">
          <mxGeometry width="50" height="50" relative="1" as="geometry">
            <mxPoint x="199.32999999999993" y="420" as="sourcePoint" />
            <mxPoint x="199.32999999999993" y="380" as="targetPoint" />
          </mxGeometry>
        </mxCell>
        <mxCell id="DW_VJ3tDuzgLOy0kpD_P-17" value="" style="endArrow=none;dashed=1;html=1;" edge="1" parent="1">
          <mxGeometry width="50" height="50" relative="1" as="geometry">
            <mxPoint x="199.32999999999993" y="610" as="sourcePoint" />
            <mxPoint x="199.32999999999993" y="570" as="targetPoint" />
          </mxGeometry>
        </mxCell>
        <mxCell id="DW_VJ3tDuzgLOy0kpD_P-18" value="" style="endArrow=none;dashed=1;html=1;" edge="1" parent="1">
          <mxGeometry width="50" height="50" relative="1" as="geometry">
            <mxPoint x="199.32999999999993" y="360" as="sourcePoint" />
            <mxPoint x="199.32999999999993" y="320" as="targetPoint" />
          </mxGeometry>
        </mxCell>
        <mxCell id="DW_VJ3tDuzgLOy0kpD_P-19" value="" style="endArrow=none;dashed=1;html=1;" edge="1" parent="1">
          <mxGeometry width="50" height="50" relative="1" as="geometry">
            <mxPoint x="199.32999999999993" y="670" as="sourcePoint" />
            <mxPoint x="199.32999999999993" y="630" as="targetPoint" />
          </mxGeometry>
        </mxCell>
        <mxCell id="DW_VJ3tDuzgLOy0kpD_P-22" value="&lt;pre&gt;&lt;font style=&quot;font-size: 18px&quot;&gt;CsI &lt;/font&gt;&lt;/pre&gt;&lt;pre&gt;&lt;font style=&quot;font-size: 18px&quot;&gt;Calorimeter&lt;/font&gt;&lt;/pre&gt;" style="rounded=1;whiteSpace=wrap;html=1;" vertex="1" parent="1">
          <mxGeometry y="200" width="120" height="280" as="geometry" />
        </mxCell>
        <mxCell id="DW_VJ3tDuzgLOy0kpD_P-23" value="&lt;pre&gt;&lt;font style=&quot;font-size: 18px&quot;&gt;Veto &lt;/font&gt;&lt;/pre&gt;&lt;pre&gt;&lt;font style=&quot;font-size: 18px&quot;&gt;Detectors&lt;/font&gt;&lt;/pre&gt;" style="rounded=1;whiteSpace=wrap;html=1;" vertex="1" parent="1">
          <mxGeometry y="520" width="120" height="200" as="geometry" />
        </mxCell>
        <mxCell id="DW_VJ3tDuzgLOy0kpD_P-33" style="edgeStyle=orthogonalEdgeStyle;rounded=0;orthogonalLoop=1;jettySize=auto;html=1;startArrow=none;startFill=0;endArrow=block;endFill=0;shape=flexArrow;" edge="1" parent="1">
          <mxGeometry relative="1" as="geometry">
            <mxPoint x="160" y="219.32999999999998" as="targetPoint" />
            <Array as="points">
              <mxPoint x="140" y="219.32999999999998" />
              <mxPoint x="140" y="219.32999999999998" />
            </Array>
            <mxPoint x="121" y="219.32999999999998" as="sourcePoint" />
          </mxGeometry>
        </mxCell>
        <mxCell id="DW_VJ3tDuzgLOy0kpD_P-34" style="edgeStyle=orthogonalEdgeStyle;rounded=0;orthogonalLoop=1;jettySize=auto;html=1;startArrow=none;startFill=0;endArrow=block;endFill=0;shape=flexArrow;" edge="1" parent="1">
          <mxGeometry relative="1" as="geometry">
            <mxPoint x="160" y="459.33000000000004" as="targetPoint" />
            <Array as="points">
              <mxPoint x="140" y="459.33000000000004" />
              <mxPoint x="140" y="459.33000000000004" />
            </Array>
            <mxPoint x="121" y="459.33000000000004" as="sourcePoint" />
          </mxGeometry>
        </mxCell>
        <mxCell id="DW_VJ3tDuzgLOy0kpD_P-35" style="edgeStyle=orthogonalEdgeStyle;rounded=0;orthogonalLoop=1;jettySize=auto;html=1;startArrow=none;startFill=0;endArrow=block;endFill=0;shape=flexArrow;" edge="1" parent="1">
          <mxGeometry relative="1" as="geometry">
            <mxPoint x="160" y="539.3999999999999" as="targetPoint" />
            <Array as="points">
              <mxPoint x="140" y="539.4000000000001" />
              <mxPoint x="140" y="539.4000000000001" />
            </Array>
            <mxPoint x="121" y="539.3999999999999" as="sourcePoint" />
          </mxGeometry>
        </mxCell>
        <mxCell id="DW_VJ3tDuzgLOy0kpD_P-36" style="edgeStyle=orthogonalEdgeStyle;rounded=0;orthogonalLoop=1;jettySize=auto;html=1;startArrow=none;startFill=0;endArrow=block;endFill=0;shape=flexArrow;" edge="1" parent="1">
          <mxGeometry relative="1" as="geometry">
            <mxPoint x="160" y="699.3299999999999" as="targetPoint" />
            <Array as="points">
              <mxPoint x="140" y="699.3300000000002" />
              <mxPoint x="140" y="699.3300000000002" />
            </Array>
            <mxPoint x="121" y="699.3299999999999" as="sourcePoint" />
          </mxGeometry>
        </mxCell>
        <mxCell id="DW_VJ3tDuzgLOy0kpD_P-37" value="" style="endArrow=classic;html=1;exitX=1;exitY=0.5;exitDx=0;exitDy=0;" edge="1" parent="1" source="DW_VJ3tDuzgLOy0kpD_P-4">
          <mxGeometry width="50" height="50" relative="1" as="geometry">
            <mxPoint x="370" y="470" as="sourcePoint" />
            <mxPoint x="320" y="360" as="targetPoint" />
          </mxGeometry>
        </mxCell>
        <mxCell id="DW_VJ3tDuzgLOy0kpD_P-38" value="" style="endArrow=classic;html=1;exitX=1;exitY=0.5;exitDx=0;exitDy=0;" edge="1" parent="1" source="DW_VJ3tDuzgLOy0kpD_P-10">
          <mxGeometry width="50" height="50" relative="1" as="geometry">
            <mxPoint x="370" y="470" as="sourcePoint" />
            <mxPoint x="320" y="400" as="targetPoint" />
          </mxGeometry>
        </mxCell>
        <mxCell id="DW_VJ3tDuzgLOy0kpD_P-39" value="" style="endArrow=none;dashed=1;html=1;" edge="1" parent="1">
          <mxGeometry width="50" height="50" relative="1" as="geometry">
            <mxPoint x="440" y="660" as="sourcePoint" />
            <mxPoint x="440" y="260" as="targetPoint" />
          </mxGeometry>
        </mxCell>
        <mxCell id="DW_VJ3tDuzgLOy0kpD_P-40" value="" style="endArrow=classic;html=1;exitX=1;exitY=0.5;exitDx=0;exitDy=0;" edge="1" parent="1" source="DW_VJ3tDuzgLOy0kpD_P-11">
          <mxGeometry width="50" height="50" relative="1" as="geometry">
            <mxPoint x="370" y="470" as="sourcePoint" />
            <mxPoint x="320" y="480" as="targetPoint" />
          </mxGeometry>
        </mxCell>
        <mxCell id="DW_VJ3tDuzgLOy0kpD_P-41" value="" style="endArrow=classic;html=1;exitX=1;exitY=0.5;exitDx=0;exitDy=0;" edge="1" parent="1" source="DW_VJ3tDuzgLOy0kpD_P-13">
          <mxGeometry width="50" height="50" relative="1" as="geometry">
            <mxPoint x="370" y="470" as="sourcePoint" />
            <mxPoint x="320" y="520" as="targetPoint" />
          </mxGeometry>
        </mxCell>
        <mxCell id="DW_VJ3tDuzgLOy0kpD_P-42" value="" style="endArrow=classic;html=1;exitX=1;exitY=0.5;exitDx=0;exitDy=0;" edge="1" parent="1" source="DW_VJ3tDuzgLOy0kpD_P-4">
          <mxGeometry width="50" height="50" relative="1" as="geometry">
            <mxPoint x="290" y="200" as="sourcePoint" />
            <mxPoint x="480" y="360" as="targetPoint" />
          </mxGeometry>
        </mxCell>
        <mxCell id="DW_VJ3tDuzgLOy0kpD_P-43" value="" style="endArrow=classic;html=1;exitX=1;exitY=0.5;exitDx=0;exitDy=0;" edge="1" parent="1" source="DW_VJ3tDuzgLOy0kpD_P-10">
          <mxGeometry width="50" height="50" relative="1" as="geometry">
            <mxPoint x="280" y="470" as="sourcePoint" />
            <mxPoint x="480" y="400" as="targetPoint" />
          </mxGeometry>
        </mxCell>
        <mxCell id="DW_VJ3tDuzgLOy0kpD_P-46" value="&lt;font style=&quot;font-size: 20px&quot;&gt;New Level 1&lt;/font&gt;" style="text;html=1;strokeColor=none;fillColor=none;align=center;verticalAlign=middle;whiteSpace=wrap;rounded=0;" vertex="1" parent="1">
          <mxGeometry x="320" y="580" width="80" height="40" as="geometry" />
        </mxCell>
        <mxCell id="DW_VJ3tDuzgLOy0kpD_P-48" value="&lt;font style=&quot;font-size: 20px&quot;&gt;New Level 2&lt;/font&gt;" style="text;html=1;strokeColor=none;fillColor=none;align=center;verticalAlign=middle;whiteSpace=wrap;rounded=0;" vertex="1" parent="1">
          <mxGeometry x="480" y="580" width="80" height="40" as="geometry" />
        </mxCell>
        <mxCell id="DW_VJ3tDuzgLOy0kpD_P-49" value="" style="endArrow=classic;html=1;exitX=1;exitY=0.167;exitDx=0;exitDy=0;exitPerimeter=0;" edge="1" parent="1" source="--FjLudx6Jw2cNEH7BGk-4">
          <mxGeometry width="50" height="50" relative="1" as="geometry">
            <mxPoint x="250" y="230" as="sourcePoint" />
            <mxPoint x="660" y="260" as="targetPoint" />
          </mxGeometry>
        </mxCell>
        <mxCell id="DW_VJ3tDuzgLOy0kpD_P-50" value="" style="endArrow=classic;html=1;exitX=0.996;exitY=0.17;exitDx=0;exitDy=0;exitPerimeter=0;" edge="1" parent="1" source="--FjLudx6Jw2cNEH7BGk-5">
          <mxGeometry width="50" height="50" relative="1" as="geometry">
            <mxPoint x="410" y="370.0799999999999" as="sourcePoint" />
            <mxPoint x="700" y="260" as="targetPoint" />
          </mxGeometry>
        </mxCell>
        <mxCell id="DW_VJ3tDuzgLOy0kpD_P-51" value="" style="endArrow=classic;html=1;entryX=0;entryY=0.5;entryDx=0;entryDy=0;startArrow=classic;startFill=1;" edge="1" parent="1" target="--FjLudx6Jw2cNEH7BGk-7">
          <mxGeometry width="50" height="50" relative="1" as="geometry">
            <mxPoint x="220" y="220" as="sourcePoint" />
            <mxPoint x="830" y="270" as="targetPoint" />
          </mxGeometry>
        </mxCell>
        <mxCell id="DW_VJ3tDuzgLOy0kpD_P-52" value="" style="endArrow=classic;html=1;startArrow=classic;startFill=1;entryX=0;entryY=0.5;entryDx=0;entryDy=0;" edge="1" parent="1" target="--FjLudx6Jw2cNEH7BGk-7">
          <mxGeometry width="50" height="50" relative="1" as="geometry">
            <mxPoint x="220" y="460" as="sourcePoint" />
            <mxPoint x="340" y="210" as="targetPoint" />
          </mxGeometry>
        </mxCell>
        <mxCell id="DW_VJ3tDuzgLOy0kpD_P-53" value="" style="endArrow=classic;html=1;entryX=0;entryY=0.5;entryDx=0;entryDy=0;startArrow=classic;startFill=1;" edge="1" parent="1" target="--FjLudx6Jw2cNEH7BGk-8">
          <mxGeometry width="50" height="50" relative="1" as="geometry">
            <mxPoint x="220" y="540" as="sourcePoint" />
            <mxPoint x="280" y="740" as="targetPoint" />
          </mxGeometry>
        </mxCell>
        <mxCell id="DW_VJ3tDuzgLOy0kpD_P-54" value="" style="endArrow=classic;html=1;startArrow=classic;startFill=1;entryX=0;entryY=0.5;entryDx=0;entryDy=0;" edge="1" parent="1" target="--FjLudx6Jw2cNEH7BGk-8">
          <mxGeometry width="50" height="50" relative="1" as="geometry">
            <mxPoint x="220" y="700" as="sourcePoint" />
            <mxPoint x="360" y="720" as="targetPoint" />
          </mxGeometry>
        </mxCell>
        <mxCell id="DW_VJ3tDuzgLOy0kpD_P-55" value="" style="rounded=0;whiteSpace=wrap;html=1;fillColor=none;dashed=1;" vertex="1" parent="1">
          <mxGeometry x="310" y="310" width="100" height="320" as="geometry" />
        </mxCell>
        <mxCell id="DW_VJ3tDuzgLOy0kpD_P-56" value="" style="rounded=0;whiteSpace=wrap;html=1;fillColor=none;dashed=1;" vertex="1" parent="1">
          <mxGeometry x="470" y="310" width="100" height="320" as="geometry" />
        </mxCell>
      </root>
    </mxGraphModel>
  </diagram>
</mxfile>
